<svg xmlns="http://www.w3.org/2000/svg" width="1024" height="1024" viewBox="0 0 1024 1024" role="img" aria-label="Clio app icon"><title>Clio app icon — Hack Bold</title><g transform="translate(132 326.3159115395133) scale(1.8568408846048672)"><path fill="#FFFFFF" transform="translate(-18.20529 196.25565) scale(0.12911556 -0.12911556)" d="M759 -29Q460 -29 300 170Q141 370 141 745Q141 1122 300 1321Q460 1520 759 1520Q846 1520 924 1502Q1002 1484 1070 1448V1120Q1025 1162 989.5 1185.5Q954 1209 922 1223Q884 1240 847.5 1247.5Q811 1255 774 1255Q614 1255 531 1127Q448 996 448 745Q448 493 531 365Q614 236 774 236Q851 236 923 269Q958 285 992.5 308.5Q1027 332 1070 371V43Q1000 7 923 -11Q846 -29 759 -29Z"/><path fill="#FFFFFF" transform="translate(111.80770 200.00000) scale(0.13395847 -0.13395847)" d="M225 1493H520V260H1151V0H225Z"/><rect x="299.99389965740704" y="0" width="13" height="200" fill="#00E5FF"/><path fill="#FFFFFF" transform="translate(340.15633 92.00000) scale(0.06162090 -0.06162090)" d="M172 260H469V1233H172V1493H1061V1233H764V260H1061V0H172Z"/><path fill="#FFFFFF" transform="translate(341.52973 198.27760) scale(0.05939316 -0.05939316)" d="M616 -29Q481 -29 384.5 21.5Q288 72 225 166Q92 362 92 745Q92 1126 225 1325Q294 1427 394.0 1473.5Q494 1520 616 1520Q875 1520 1009 1324Q1141 1128 1141 745Q1141 364 1009 167Q945 72 847.5 21.5Q750 -29 616 -29ZM616 236Q730 236 782 357Q834 474 834 746Q834 1017 782 1134Q730 1255 616 1255Q504 1255 451 1134Q399 1017 399 746Q399 474 451 357Q503 236 616 236Z"/></g></svg>
